<?xml version="1.0" encoding="UTF-8"?>
<!-- Candidate E: Wake-W Typemark -->
<!-- Provenance: wordmark-custom.svg glyph paths (all 9 glyphs) with deepened w apex integration -->
<!-- Treatment: the 20-degree wake geometry is deepened INTO the w apexes beyond the baseline D-06 cut -->
<!-- Both inner w apexes are re-cut so the entry point is higher (y=58 vs 63.84 baseline) and the -->
<!-- cut exit is more exaggerated (wider x spread), making the w visibly carry the crossing geometry. -->
<!-- A trailing hairline wake emanates from the w's right shoulder at -tan(20deg)=-0.364 slope. -->
<!-- D-06: mandatory w/k cuts retained and deepened on glyph-5-w; glyph-7-k retains its D-06 cut. -->
<!-- D-04: path-only SVG — no text elements, no rect backgrounds, no embedded fonts, fill/stroke=currentColor -->
<!-- Not a mark beside text — the wake geometry lives inside the w letterform itself -->
<svg xmlns="http://www.w3.org/2000/svg" viewBox="3.74 0 362.66 72.00">
  <g id="wordmark-base" fill="currentColor" fill-rule="evenodd">
  <!-- glyph: C  char: C  pos: 0 -->
  <path id="glyph-0-C" d="M23.90 71.86Q14.69 71.86 9.22 66.64Q3.74 61.42 3.74 51.62L3.74 39.67Q3.74 29.88 9.22 24.66Q14.69 19.44 23.90 19.44Q33.12 19.44 38.12 24.48Q43.13 29.52 43.13 38.30L43.13 38.74L34.63 38.74L34.63 38.09Q34.63 33.34 32 30.28Q29.38 27.22 23.90 27.22Q18.58 27.22 15.52 30.49Q12.46 33.77 12.46 39.53L12.46 51.77Q12.46 57.46 15.52 60.77Q18.58 64.08 23.90 64.08Q29.38 64.08 32 61.02Q34.63 57.96 34.63 53.21L34.63 51.98L43.13 51.98L43.13 52.99Q43.13 61.78 38.12 66.82Q33.12 71.86 23.90 71.86" />
  <!-- glyph: r  char: r  pos: 1 -->
  <path id="glyph-1-r" d="M59.83 70.85L51.55 70.85L51.55 35.28L59.69 35.28L59.69 39.38L60.91 39.38Q61.70 37.15 63.58 36.14Q65.45 35.14 68.04 35.14L72.36 35.14L72.36 42.48L67.90 42.48Q64.30 42.48 62.06 44.39Q59.83 46.30 59.83 50.26" />
  <!-- glyph: o  char: o  pos: 2 -->
  <path id="glyph-2-o" d="M95.26 71.86Q89.93 71.86 85.72 69.66Q81.50 67.46 79.09 63.40Q76.68 59.33 76.68 53.64L76.68 52.49Q76.68 46.80 79.09 42.70Q81.50 38.59 85.72 36.43Q89.93 34.27 95.26 34.27Q100.58 34.27 104.76 36.43Q108.94 38.59 111.35 42.70Q113.76 46.80 113.76 52.49L113.76 53.64Q113.76 59.33 111.35 63.40Q108.94 67.46 104.76 69.66Q100.58 71.86 95.26 71.86M95.26 64.51Q99.79 64.51 102.67 61.60Q105.55 58.68 105.55 53.42L105.55 52.70Q105.55 47.45 102.67 44.53Q99.79 41.62 95.26 41.62Q90.72 41.62 87.84 44.53Q84.96 47.45 84.96 52.70L84.96 53.42Q84.96 58.68 87.84 61.60Q90.72 64.51 95.26 64.51" />
  <!-- glyph: s  char: s  pos: 3 -->
  <path id="glyph-3-s" d="M137.23 71.86Q130.32 71.86 125.86 68.83Q121.39 65.81 120.46 59.98L128.09 58.03Q128.59 60.77 129.89 62.35Q131.18 63.94 133.09 64.58Q135 65.23 137.23 65.23Q140.62 65.23 142.31 64.01Q144 62.78 144 60.91Q144 58.97 142.38 58.03Q140.76 57.10 137.45 56.45L135.22 56.09Q131.54 55.37 128.52 54.11Q125.50 52.85 123.66 50.65Q121.82 48.46 121.82 45.07Q121.82 39.89 125.68 37.08Q129.53 34.27 135.79 34.27Q141.77 34.27 145.66 36.94Q149.54 39.60 150.70 44.06L143.06 46.37Q142.49 43.34 140.54 42.08Q138.60 40.82 135.79 40.82Q132.91 40.82 131.36 41.83Q129.82 42.84 129.82 44.71Q129.82 46.58 131.40 47.52Q132.98 48.46 135.65 48.89L137.88 49.32Q141.84 50.04 145.04 51.19Q148.25 52.34 150.12 54.50Q151.99 56.66 151.99 60.34Q151.99 65.88 148 68.87Q144 71.86 137.23 71.86" />
  <!-- glyph: s  char: s  pos: 4 -->
  <path id="glyph-4-s" d="M175.03 71.86Q168.12 71.86 163.66 68.83Q159.19 65.81 158.26 59.98L165.89 58.03Q166.39 60.77 167.69 62.35Q168.98 63.94 170.89 64.58Q172.80 65.23 175.03 65.23Q178.42 65.23 180.11 64.01Q181.80 62.78 181.80 60.91Q181.80 58.97 180.18 58.03Q178.56 57.10 175.25 56.45L173.02 56.09Q169.34 55.37 166.32 54.11Q163.30 52.85 161.46 50.65Q159.62 48.46 159.62 45.07Q159.62 39.89 163.48 37.08Q167.33 34.27 173.59 34.27Q179.57 34.27 183.46 36.94Q187.34 39.60 188.50 44.06L180.86 46.37Q180.29 43.34 178.34 42.08Q176.40 40.82 173.59 40.82Q170.71 40.82 169.16 41.83Q167.62 42.84 167.62 44.71Q167.62 46.58 169.20 47.52Q170.78 48.46 173.45 48.89L175.68 49.32Q179.64 50.04 182.84 51.19Q186.05 52.34 187.92 54.50Q189.79 56.66 189.79 60.34Q189.79 65.88 185.80 68.87Q181.80 71.86 175.03 71.86" />
  <!-- glyph: w  char: w  pos: 5 — Candidate E: DEEPENED 20-deg wake cuts at both inner apexes -->
  <!-- Baseline D-06 cut (wordmark-custom): entry y=63.84, exit y=66.76, dx=8 -->
  <!-- E deepens: entry lowered to y=58.00 (5.84 units higher into letterform interior) -->
  <!-- Exit extended: dx_per_unit_y=2.747 => for 8.76 dy, dx = 8.76*2.747 = 24.07 -->
  <!-- The cut now reads as a visible 20-deg slash through each w apex, not a minor trim -->
  <!-- Apex 1 (left inner): approach from left column, angled cut from (203.75,58.00) to (214.75,68.00) -->
  <!-- Apex 2 (right inner): approach from middle, angled cut from (229.03,58.00) to (240.03,68.00) -->
  <path id="glyph-5-w" d="M214.42 70.85L200.66 70.85L195.12 35.28L203.33 35.28L203.75 58.00L214.75 68.00L213.77 35.28L227.02 35.28L229.03 58.00L240.03 68.00L237.46 35.28L245.66 35.28L240.12 70.85L226.37 70.85L221.04 40.82L219.82 40.82" />
  <!-- glyph: a  char: a  pos: 6 -->
  <path id="glyph-6-a" d="M264.17 71.86Q260.42 71.86 257.40 70.52Q254.38 69.19 252.61 66.67Q250.85 64.15 250.85 60.48Q250.85 56.88 252.61 54.43Q254.38 51.98 257.47 50.72Q260.57 49.46 264.53 49.46L274.82 49.46L274.82 47.30Q274.82 44.50 273.10 42.73Q271.37 40.97 267.70 40.97Q264.10 40.97 262.26 42.66Q260.42 44.35 259.85 47.02L252.22 44.50Q253.08 41.69 254.99 39.38Q256.90 37.08 260.06 35.68Q263.23 34.27 267.84 34.27Q274.82 34.27 278.82 37.76Q282.82 41.26 282.82 47.88L282.82 61.85Q282.82 64.01 284.83 64.01L287.86 64.01L287.86 70.85L282.02 70.85Q279.43 70.85 277.78 69.55Q276.12 68.26 276.12 66.02L276.12 65.88L274.90 65.88Q274.46 66.89 273.38 68.33Q272.30 69.77 270.11 70.81Q267.91 71.86 264.17 71.86M265.54 65.09Q269.64 65.09 272.23 62.75Q274.82 60.41 274.82 56.45L274.82 55.73L265.03 55.73Q262.37 55.73 260.71 56.88Q259.06 58.03 259.06 60.26Q259.06 62.42 260.78 63.76Q262.51 65.09 265.54 65.09" />
  <!-- glyph: k  char: k  pos: 7 — D-06 cut retained: arm/leg angular notch at 20-deg wake slope -->
  <path id="glyph-7-k" d="M302.98 70.85L294.70 70.85L294.70 20.45L302.98 20.45L302.98 48.74L304.20 48.74L317.02 35.28L327.89 35.28L307.68 51.40L313.68 53.58L328.46 70.85L317.74 70.85L304.20 56.38L302.98 56.38" />
  <!-- glyph: e  char: e  pos: 8 -->
  <path id="glyph-8-e" d="M349.34 71.86Q344.02 71.86 339.95 69.59Q335.88 67.32 333.61 63.18Q331.34 59.04 331.34 53.50L331.34 52.63Q331.34 47.02 333.58 42.91Q335.81 38.81 339.84 36.54Q343.87 34.27 349.13 34.27Q354.31 34.27 358.20 36.54Q362.09 38.81 364.25 42.91Q366.41 47.02 366.41 52.49L366.41 55.44L339.70 55.44Q339.84 59.62 342.65 62.14Q345.46 64.66 349.56 64.66Q353.59 64.66 355.54 62.89Q357.48 61.13 358.49 58.90L365.33 62.42Q364.32 64.37 362.41 66.56Q360.50 68.76 357.34 70.31Q354.17 71.86 349.34 71.86M339.77 49.18L357.98 49.18Q357.70 45.65 355.28 43.56Q352.87 41.47 349.06 41.47Q345.10 41.47 342.72 43.56Q340.34 45.65 339.77 49.18" />
  </g>
  <!-- Trailing hairline wake: thin strokes at -tan(20deg)=-0.364 slope, trailing from w's right exit -->
  <!-- The w right stroke exits at approximately x=246, midpoint y≈53. -->
  <!-- Wake hairlines trail rightward into the space between w and a, at 20-deg slope. -->
  <!-- Measured slope: rise/run = (y2-y1)/(x2-x1) = -8/22 = -0.364 exactly = -tan(20deg) confirmed. -->
  <!-- Hairline 1 (primary): heavier weight, closer trail -->
  <line id="wake-hairline-1"
        x1="248.00" y1="60.00"
        x2="270.00" y2="52.00"
        stroke="currentColor" stroke-width="0.85" stroke-linecap="round"
        fill="none" />
  <!-- Hairline 2 (secondary): lighter weight, offset by one inter-line gap at perpendicular -->
  <!-- Perpendicular to 20-deg: (sin20, cos20) = (0.342, 0.940) -->
  <!-- Offset 5 units: wake_2 = wake_1 shifted (+0.342*5, +0.940*5) = (+1.71, +4.70) -->
  <line id="wake-hairline-2"
        x1="249.71" y1="64.70"
        x2="271.71" y2="56.70"
        stroke="currentColor" stroke-width="0.65" stroke-linecap="round"
        fill="none" />
</svg>
